<svg width="20" height="20" viewBox="0 0 20 20" fill="none" xmlns="http://www.w3.org/2000/svg">
<path d="M6.98356 7.37779C7.56356 8.58581 8.35422 9.71801 9.35553 10.7193C10.3568 11.7206 11.4891 12.5113 12.6971 13.0913C12.801 13.1412 12.8529 13.1661 12.9187 13.1853C13.1523 13.2534 13.4392 13.2045 13.637 13.0628C13.6927 13.0229 13.7403 12.9753 13.8356 12.88C14.1269 12.5887 14.2726 12.443 14.4191 12.3478C14.9715 11.9886 15.6837 11.9886 16.2361 12.3478C16.3825 12.443 16.5282 12.5887 16.8196 12.88L16.9819 13.0424C17.4248 13.4853 17.6462 13.7067 17.7665 13.9446C18.0058 14.4175 18.0058 14.9761 17.7665 15.449C17.6462 15.6869 17.4248 15.9083 16.9819 16.3512L16.8506 16.4825C16.4092 16.9239 16.1886 17.1446 15.8885 17.3131C15.5556 17.5001 15.0385 17.6346 14.6567 17.6334C14.3126 17.6324 14.0774 17.5657 13.607 17.4322C11.0792 16.7147 8.69387 15.361 6.70388 13.371C4.7139 11.381 3.36017 8.99569 2.6427 6.46786C2.50919 5.99749 2.44244 5.7623 2.44141 5.41818C2.44028 5.03633 2.57475 4.51925 2.76176 4.18633C2.9303 3.88631 3.15098 3.66563 3.59233 3.22428L3.72369 3.09292C4.16656 2.65005 4.388 2.42861 4.62581 2.30833C5.09878 2.0691 5.65734 2.0691 6.1303 2.30832C6.36812 2.42861 6.58955 2.65005 7.03242 3.09291L7.19481 3.25531C7.48615 3.54665 7.63182 3.69231 7.72706 3.8388C8.08622 4.3912 8.08622 5.10335 7.72706 5.65576C7.63182 5.80225 7.48615 5.94791 7.19481 6.23925C7.09955 6.33451 7.05192 6.38214 7.01206 6.43782C6.87038 6.63568 6.82146 6.92256 6.88957 7.15619C6.90873 7.22193 6.93367 7.27389 6.98356 7.37779Z" stroke="black" stroke-width="1.66667" stroke-linecap="round" stroke-linejoin="round"/>
</svg>
